<?xml version="1.0" encoding="UTF-8"?>
<svg width="432px" height="92px" viewBox="0 0 432 92" version="1.1" xmlns="http://www.w3.org/2000/svg" xmlns:xlink="http://www.w3.org/1999/xlink">
    <title>logo</title>
    <g id="logo" stroke="none" stroke-width="1" fill="none" fill-rule="evenodd">
        <g id="Group-2" transform="translate(0.000000, 8.000000)" fill-rule="nonzero">
            <g id="collabur_icon">
                <path d="M62.0454545,0 L2.95454545,0 C1.32560606,0 0,1.19217143 0,2.65714286 L0,59.3428571 C0,60.8078286 1.32560606,62 2.95454545,62 L62.0454545,62 C63.6743939,62 65,60.8078286 65,59.3428571 L65,2.65714286 C65,1.19217143 63.6743939,0 62.0454545,0 Z M1.96969697,2.73529412 C1.96969697,2.232 2.41090909,1.82352941 2.95454545,1.82352941 L62.0454545,1.82352941 C62.5871212,1.82352941 63.030303,2.232 63.030303,2.73529412 L63.030303,10.9411765 L1.96969697,10.9411765 L1.96969697,2.73529412 Z M63.030303,59.2984749 C63.030303,59.7813725 62.5871212,60.1764706 62.0454545,60.1764706 L2.95454545,60.1764706 C2.41090909,60.1764706 1.96969697,59.7813725 1.96969697,59.2984749 L1.96969697,12.7647059 L63.030303,12.7647059 L63.030303,59.2984749 Z" id="Shape" fill="#534C5C"></path>
                <path d="M46.4504717,7.90196078 L44.9174528,7.90196078 C44.4943396,7.90196078 44.1509434,7.35733333 44.1509434,6.68627451 C44.1509434,6.01521569 44.4943396,5.47058824 44.9174528,5.47058824 L46.4504717,5.47058824 C46.8735849,5.47058824 47.2169811,6.01521569 47.2169811,6.68627451 C47.2169811,7.35733333 46.8735849,7.90196078 46.4504717,7.90196078 Z" id="Shape" fill="#534C5C"></path>
                <path d="M52.5825472,7.90196078 L51.0495283,7.90196078 C50.6264151,7.90196078 50.2830189,7.35733333 50.2830189,6.68627451 C50.2830189,6.01521569 50.6264151,5.47058824 51.0495283,5.47058824 L52.5825472,5.47058824 C53.0056604,5.47058824 53.3490566,6.01521569 53.3490566,6.68627451 C53.3490566,7.35733333 53.0056604,7.90196078 52.5825472,7.90196078 Z" id="Shape" fill="#534C5C"></path>
                <path d="M59.3278302,7.90196078 L57.7948113,7.90196078 C57.3716981,7.90196078 57.0283019,7.35733333 57.0283019,6.68627451 C57.0283019,6.01521569 57.3716981,5.47058824 57.7948113,5.47058824 L59.3278302,5.47058824 C59.7509434,5.47058824 60.0943396,6.01521569 60.0943396,6.68627451 C60.0943396,7.35733333 59.7509434,7.90196078 59.3278302,7.90196078 Z" id="Shape" fill="#534C5C"></path>
                <g id="Group" transform="translate(9.500000, 17.500000)">
                    <ellipse id="Oval" stroke="#6B34AE" stroke-width="2" cx="37.0188679" cy="9.11764706" rx="8.19811321" ry="8.11764706"></ellipse>
                    <path d="M1,0 L17.3962264,0 C17.9485112,-1.01453063e-16 18.3962264,0.44771525 18.3962264,1 L18.3962264,17.2352941 C18.3962264,17.7875789 17.9485112,18.2352941 17.3962264,18.2352941 L1,18.2352941 C0.44771525,18.2352941 6.76353751e-17,17.7875789 0,17.2352941 L0,1 C-6.76353751e-17,0.44771525 0.44771525,1.01453063e-16 1,0 Z" id="Rectangle-2" fill="#6B34AE"></path>
                    <path d="M1,23.7254902 L17.3962264,23.7254902 C17.9485112,23.7254902 18.3962264,24.1732054 18.3962264,24.7254902 L18.3962264,25.7647059 C18.3962264,26.3169906 17.9485112,26.7647059 17.3962264,26.7647059 L1,26.7647059 C0.44771525,26.7647059 6.76353751e-17,26.3169906 0,25.7647059 L0,24.7254902 C-6.76353751e-17,24.1732054 0.44771525,23.7254902 1,23.7254902 Z" id="Rectangle-2" fill="#6B34AE"></path>
                    <path d="M1,29.8039216 L17.3962264,29.8039216 C17.9485112,29.8039216 18.3962264,30.2516368 18.3962264,30.8039216 L18.3962264,31.8431373 C18.3962264,32.395422 17.9485112,32.8431373 17.3962264,32.8431373 L1,32.8431373 C0.44771525,32.8431373 6.76353751e-17,32.395422 0,31.8431373 L0,30.8039216 C-6.76353751e-17,30.2516368 0.44771525,29.8039216 1,29.8039216 Z" id="Rectangle-2" fill="#6B34AE"></path>
                    <rect id="Rectangle-2" fill="#6B34AE" x="0" y="35.2745098" width="18.3962264" height="3.03921569" rx="1"></rect>
                    <path d="M37.8647626,25.0670817 L45.2501797,36.7803755 C45.5447408,37.2475502 45.4048097,37.8650591 44.937635,38.1596202 C44.7779598,38.2602979 44.5930499,38.3137255 44.404285,38.3137255 L29.6334508,38.3137255 C29.0811661,38.3137255 28.6334508,37.8660102 28.6334508,37.3137255 C28.6334508,37.1249607 28.6868784,36.9400507 28.7875561,36.7803755 L36.1729732,25.0670817 C36.4675343,24.599907 37.0850432,24.4599759 37.5522179,24.754537 C37.6784079,24.8341018 37.7851978,24.9408917 37.8647626,25.0670817 Z" id="Triangle" fill="#641CA4"></path>
                </g>
            </g>
            <g id="Collabur-2" transform="translate(89.000000, 6.000000)" fill="#6B34AE">
                <path d="M23.17,50.47 C26.25,50.47 29.1666667,49.9916667 31.92,49.035 C34.6733333,48.0783333 37.0766667,46.69 39.13,44.87 C40.0166667,44.17 40.46,43.2366667 40.46,42.07 C40.46,41.23 40.2266667,40.5183333 39.76,39.935 C39.2933333,39.3516667 38.7333333,39.06 38.08,39.06 C37.4733333,39.06 36.7033333,39.3633333 35.77,39.97 C33.4366667,41.6033333 31.3483333,42.77 29.505,43.47 C27.6616667,44.17 25.62,44.52 23.38,44.52 C18.2466667,44.52 14.3033333,42.8633333 11.55,39.55 C8.79666667,36.2366667 7.42,31.4533333 7.42,25.2 C7.42,18.9933333 8.79666667,14.2333333 11.55,10.92 C14.3033333,7.60666667 18.2466667,5.95 23.38,5.95 C25.7133333,5.95 27.8016667,6.28833333 29.645,6.965 C31.4883333,7.64166667 33.53,8.82 35.77,10.5 C36.5166667,11.1066667 37.2866667,11.41 38.08,11.41 C38.7333333,11.41 39.2933333,11.1183333 39.76,10.535 C40.2266667,9.95166667 40.46,9.24 40.46,8.4 C40.46,7.23333333 40.0166667,6.3 39.13,5.6 C37.0766667,3.78 34.6733333,2.39166667 31.92,1.435 C29.1666667,0.478333333 26.25,0 23.17,0 C18.4566667,0 14.35,1.015 10.85,3.045 C7.35,5.075 4.66666667,7.99166667 2.8,11.795 C0.933333333,15.5983333 2.84217094e-14,20.0666667 2.84217094e-14,25.2 C2.84217094e-14,30.38 0.933333333,34.8716667 2.8,38.675 C4.66666667,42.4783333 7.35,45.395 10.85,47.425 C14.35,49.455 18.4566667,50.47 23.17,50.47 Z M61.845,50.4 C65.205,50.4 68.1566667,49.6766667 70.7,48.23 C73.2433333,46.7833333 75.2033333,44.7183333 76.58,42.035 C77.9566667,39.3516667 78.645,36.2366667 78.645,32.69 C78.645,29.0966667 77.9566667,25.9583333 76.58,23.275 C75.2033333,20.5916667 73.2433333,18.5266667 70.7,17.08 C68.1566667,15.6333333 65.205,14.91 61.845,14.91 C58.485,14.91 55.5333333,15.6333333 52.99,17.08 C50.4466667,18.5266667 48.4866667,20.5916667 47.11,23.275 C45.7333333,25.9583333 45.045,29.0966667 45.045,32.69 C45.045,36.2366667 45.7333333,39.3516667 47.11,42.035 C48.4866667,44.7183333 50.4466667,46.7833333 52.99,48.23 C55.5333333,49.6766667 58.485,50.4 61.845,50.4 Z M61.845,44.8 C58.7183333,44.8 56.3266667,43.7733333 54.67,41.72 C53.0133333,39.6666667 52.185,36.6566667 52.185,32.69 C52.185,28.77 53.025,25.7716667 54.705,23.695 C56.385,21.6183333 58.765,20.58 61.845,20.58 C64.925,20.58 67.305,21.6183333 68.985,23.695 C70.665,25.7716667 71.505,28.77 71.505,32.69 C71.505,36.6566667 70.6766667,39.6666667 69.02,41.72 C67.3633333,43.7733333 64.9716667,44.8 61.845,44.8 Z M89.53,50.26 C90.5566667,50.26 91.3966667,49.98 92.05,49.42 C92.7033333,48.86 93.03,48.02 93.03,46.9 L93.03,46.9 L93.03,3.64 C93.03,2.52 92.7033333,1.66833333 92.05,1.085 C91.3966667,0.501666667 90.5566667,0.21 89.53,0.21 C88.5033333,0.21 87.6516667,0.501666667 86.975,1.085 C86.2983333,1.66833333 85.96,2.52 85.96,3.64 L85.96,3.64 L85.96,46.9 C85.96,48.02 86.2983333,48.86 86.975,49.42 C87.6516667,49.98 88.5033333,50.26 89.53,50.26 Z M105.945,50.26 C106.971667,50.26 107.811667,49.98 108.465,49.42 C109.118333,48.86 109.445,48.02 109.445,46.9 L109.445,46.9 L109.445,3.64 C109.445,2.52 109.118333,1.66833333 108.465,1.085 C107.811667,0.501666667 106.971667,0.21 105.945,0.21 C104.918333,0.21 104.066667,0.501666667 103.39,1.085 C102.713333,1.66833333 102.375,2.52 102.375,3.64 L102.375,3.64 L102.375,46.9 C102.375,48.02 102.713333,48.86 103.39,49.42 C104.066667,49.98 104.918333,50.26 105.945,50.26 Z M129.71,50.4 C132.043333,50.4 134.085,49.875 135.835,48.825 C137.585,47.775 138.903333,46.27 139.79,44.31 L139.79,44.31 L139.79,46.9 C139.79,47.9266667 140.093333,48.7433333 140.7,49.35 C141.306667,49.9566667 142.123333,50.26 143.15,50.26 C144.223333,50.26 145.063333,49.9683333 145.67,49.385 C146.276667,48.8016667 146.58,47.9733333 146.58,46.9 L146.58,46.9 L146.58,28.77 C146.58,24.1033333 145.471667,20.6266667 143.255,18.34 C141.038333,16.0533333 137.666667,14.91 133.14,14.91 C131.086667,14.91 128.963333,15.1783333 126.77,15.715 C124.576667,16.2516667 122.663333,16.9633333 121.03,17.85 C120.143333,18.3633333 119.501667,18.8883333 119.105,19.425 C118.708333,19.9616667 118.51,20.58 118.51,21.28 C118.51,22.0733333 118.731667,22.7266667 119.175,23.24 C119.618333,23.7533333 120.19,24.01 120.89,24.01 C121.403333,24.01 122.29,23.66 123.55,22.96 C125.276667,22.1666667 126.863333,21.56 128.31,21.14 C129.756667,20.72 131.296667,20.51 132.93,20.51 C135.31,20.51 137.036667,21.0933333 138.11,22.26 C139.183333,23.4266667 139.72,25.3166667 139.72,27.93 L139.72,27.93 L139.72,29.96 L138.11,29.96 C132.93,29.96 128.858333,30.2633333 125.895,30.87 C122.931667,31.4766667 120.808333,32.4916667 119.525,33.915 C118.241667,35.3383333 117.6,37.2866667 117.6,39.76 C117.6,41.7666667 118.125,43.5866667 119.175,45.22 C120.225,46.8533333 121.683333,48.125 123.55,49.035 C125.416667,49.945 127.47,50.4 129.71,50.4 Z M130.97,45.15 C129.15,45.15 127.633333,44.6133333 126.42,43.54 C125.206667,42.4666667 124.6,41.09 124.6,39.41 C124.6,37.9633333 125.02,36.855 125.86,36.085 C126.7,35.315 128.1,34.7666667 130.06,34.44 C132.02,34.1133333 134.82,33.95 138.46,33.95 L138.46,33.95 L139.72,33.95 L139.72,35.77 C139.72,38.5233333 138.903333,40.775 137.27,42.525 C135.636667,44.275 133.536667,45.15 130.97,45.15 Z M174.055,50.4 C176.995,50.4 179.62,49.6533333 181.93,48.16 C184.24,46.6666667 186.036667,44.5666667 187.32,41.86 C188.603333,39.1533333 189.245,36.05 189.245,32.55 C189.245,29.0033333 188.603333,25.9 187.32,23.24 C186.036667,20.58 184.251667,18.5266667 181.965,17.08 C179.678333,15.6333333 177.041667,14.91 174.055,14.91 C171.488333,14.91 169.225,15.47 167.265,16.59 C165.305,17.71 163.811667,19.2966667 162.785,21.35 L162.785,21.35 L162.785,3.43 C162.785,2.45 162.47,1.66833333 161.84,1.085 C161.21,0.501666667 160.381667,0.21 159.355,0.21 C158.281667,0.21 157.406667,0.513333333 156.73,1.12 C156.053333,1.72666667 155.715,2.54333333 155.715,3.57 L155.715,3.57 L155.715,46.83 C155.715,47.8566667 156.041667,48.685 156.695,49.315 C157.348333,49.945 158.211667,50.26 159.285,50.26 C160.358333,50.26 161.21,49.945 161.84,49.315 C162.47,48.685 162.785,47.8566667 162.785,46.83 L162.785,46.83 L162.785,44.03 C163.811667,46.0833333 165.305,47.6583333 167.265,48.755 C169.225,49.8516667 171.488333,50.4 174.055,50.4 Z M172.375,44.8 C169.295,44.8 166.926667,43.75 165.27,41.65 C163.613333,39.55 162.785,36.5633333 162.785,32.69 C162.785,28.8166667 163.613333,25.83 165.27,23.73 C166.926667,21.63 169.295,20.58 172.375,20.58 C175.455,20.58 177.835,21.6183333 179.515,23.695 C181.195,25.7716667 182.035,28.7233333 182.035,32.55 C182.035,36.4233333 181.183333,39.4333333 179.48,41.58 C177.776667,43.7266667 175.408333,44.8 172.375,44.8 Z M208.88,50.4 C211.213333,50.4 213.325,49.8866667 215.215,48.86 C217.105,47.8333333 218.586667,46.34 219.66,44.38 L219.66,44.38 L219.66,47.04 C219.66,48.02 219.963333,48.8016667 220.57,49.385 C221.176667,49.9683333 221.97,50.26 222.95,50.26 C224.023333,50.26 224.886667,49.9566667 225.54,49.35 C226.193333,48.7433333 226.52,47.95 226.52,46.97 L226.52,46.97 L226.52,18.48 C226.52,17.4066667 226.205,16.5666667 225.575,15.96 C224.945,15.3533333 224.093333,15.05 223.02,15.05 C221.946667,15.05 221.083333,15.365 220.43,15.995 C219.776667,16.625 219.45,17.4533333 219.45,18.48 L219.45,18.48 L219.45,34.93 C219.45,37.87 218.621667,40.2266667 216.965,42 C215.308333,43.7733333 213.103333,44.66 210.35,44.66 C208.016667,44.66 206.29,44.0066667 205.17,42.7 C204.05,41.3933333 203.49,39.3633333 203.49,36.61 L203.49,36.61 L203.49,18.48 C203.49,17.4066667 203.175,16.5666667 202.545,15.96 C201.915,15.3533333 201.063333,15.05 199.99,15.05 C198.87,15.05 197.995,15.3533333 197.365,15.96 C196.735,16.5666667 196.42,17.4066667 196.42,18.48 L196.42,18.48 L196.42,36.68 C196.42,45.8266667 200.573333,50.4 208.88,50.4 Z M239.435,50.26 C240.461667,50.26 241.301667,49.98 241.955,49.42 C242.608333,48.86 242.935,48.02 242.935,46.9 L242.935,46.9 L242.935,30.87 C242.935,28.35 243.646667,26.2033333 245.07,24.43 C246.493333,22.6566667 248.675,21.63 251.615,21.35 L251.615,21.35 L253.715,21.14 C254.975,21.0466667 255.861667,20.7433333 256.375,20.23 C256.888333,19.7166667 257.145,18.9466667 257.145,17.92 C257.145,15.8666667 256.025,14.91 253.785,15.05 L253.785,15.05 L252.805,15.12 C250.565,15.3066667 248.558333,15.9366667 246.785,17.01 C245.011667,18.0833333 243.658333,19.6466667 242.725,21.7 L242.725,21.7 L242.725,18.34 C242.725,17.3133333 242.41,16.5083333 241.78,15.925 C241.15,15.3416667 240.368333,15.05 239.435,15.05 C238.408333,15.05 237.556667,15.3416667 236.88,15.925 C236.203333,16.5083333 235.865,17.3366667 235.865,18.41 L235.865,18.41 L235.865,46.9 C235.865,48.02 236.203333,48.86 236.88,49.42 C237.556667,49.98 238.408333,50.26 239.435,50.26 Z" id="Collabur"></path>
            </g>
        </g>
    </g>
</svg>