<?xml version="1.0" encoding="UTF-8"?>
<svg width="101px" height="92px" viewBox="0 0 101 92" version="1.1" xmlns="http://www.w3.org/2000/svg" xmlns:xlink="http://www.w3.org/1999/xlink">
    <title>icon</title>
    <g id="icon" stroke="none" stroke-width="1" fill="none" fill-rule="evenodd">
        <g id="collabur_icon" transform="translate(18.000000, 15.000000)" fill-rule="nonzero">
            <path d="M62.0454545,0 L2.95454545,0 C1.32560606,0 0,1.19217143 0,2.65714286 L0,59.3428571 C0,60.8078286 1.32560606,62 2.95454545,62 L62.0454545,62 C63.6743939,62 65,60.8078286 65,59.3428571 L65,2.65714286 C65,1.19217143 63.6743939,0 62.0454545,0 Z M1.96969697,2.73529412 C1.96969697,2.232 2.41090909,1.82352941 2.95454545,1.82352941 L62.0454545,1.82352941 C62.5871212,1.82352941 63.030303,2.232 63.030303,2.73529412 L63.030303,10.9411765 L1.96969697,10.9411765 L1.96969697,2.73529412 Z M63.030303,59.2984749 C63.030303,59.7813725 62.5871212,60.1764706 62.0454545,60.1764706 L2.95454545,60.1764706 C2.41090909,60.1764706 1.96969697,59.7813725 1.96969697,59.2984749 L1.96969697,12.7647059 L63.030303,12.7647059 L63.030303,59.2984749 Z" id="Shape" fill="#534C5C"></path>
            <path d="M46.4504717,7.90196078 L44.9174528,7.90196078 C44.4943396,7.90196078 44.1509434,7.35733333 44.1509434,6.68627451 C44.1509434,6.01521569 44.4943396,5.47058824 44.9174528,5.47058824 L46.4504717,5.47058824 C46.8735849,5.47058824 47.2169811,6.01521569 47.2169811,6.68627451 C47.2169811,7.35733333 46.8735849,7.90196078 46.4504717,7.90196078 Z" id="Shape" fill="#534C5C"></path>
            <path d="M52.5825472,7.90196078 L51.0495283,7.90196078 C50.6264151,7.90196078 50.2830189,7.35733333 50.2830189,6.68627451 C50.2830189,6.01521569 50.6264151,5.47058824 51.0495283,5.47058824 L52.5825472,5.47058824 C53.0056604,5.47058824 53.3490566,6.01521569 53.3490566,6.68627451 C53.3490566,7.35733333 53.0056604,7.90196078 52.5825472,7.90196078 Z" id="Shape" fill="#534C5C"></path>
            <path d="M59.3278302,7.90196078 L57.7948113,7.90196078 C57.3716981,7.90196078 57.0283019,7.35733333 57.0283019,6.68627451 C57.0283019,6.01521569 57.3716981,5.47058824 57.7948113,5.47058824 L59.3278302,5.47058824 C59.7509434,5.47058824 60.0943396,6.01521569 60.0943396,6.68627451 C60.0943396,7.35733333 59.7509434,7.90196078 59.3278302,7.90196078 Z" id="Shape" fill="#534C5C"></path>
            <g id="Group" transform="translate(9.500000, 17.500000)">
                <ellipse id="Oval" stroke="#6B34AE" stroke-width="2" cx="37.0188679" cy="9.11764706" rx="8.19811321" ry="8.11764706"></ellipse>
                <path d="M1,0 L17.3962264,0 C17.9485112,-1.01453063e-16 18.3962264,0.44771525 18.3962264,1 L18.3962264,17.2352941 C18.3962264,17.7875789 17.9485112,18.2352941 17.3962264,18.2352941 L1,18.2352941 C0.44771525,18.2352941 6.76353751e-17,17.7875789 0,17.2352941 L0,1 C-6.76353751e-17,0.44771525 0.44771525,1.01453063e-16 1,0 Z" id="Rectangle-2" fill="#6B34AE"></path>
                <path d="M1,23.7254902 L17.3962264,23.7254902 C17.9485112,23.7254902 18.3962264,24.1732054 18.3962264,24.7254902 L18.3962264,25.7647059 C18.3962264,26.3169906 17.9485112,26.7647059 17.3962264,26.7647059 L1,26.7647059 C0.44771525,26.7647059 6.76353751e-17,26.3169906 0,25.7647059 L0,24.7254902 C-6.76353751e-17,24.1732054 0.44771525,23.7254902 1,23.7254902 Z" id="Rectangle-2" fill="#6B34AE"></path>
                <path d="M1,29.8039216 L17.3962264,29.8039216 C17.9485112,29.8039216 18.3962264,30.2516368 18.3962264,30.8039216 L18.3962264,31.8431373 C18.3962264,32.395422 17.9485112,32.8431373 17.3962264,32.8431373 L1,32.8431373 C0.44771525,32.8431373 6.76353751e-17,32.395422 0,31.8431373 L0,30.8039216 C-6.76353751e-17,30.2516368 0.44771525,29.8039216 1,29.8039216 Z" id="Rectangle-2" fill="#6B34AE"></path>
                <rect id="Rectangle-2" fill="#6B34AE" x="0" y="35.2745098" width="18.3962264" height="3.03921569" rx="1"></rect>
                <path d="M37.8647626,25.0670817 L45.2501797,36.7803755 C45.5447408,37.2475502 45.4048097,37.8650591 44.937635,38.1596202 C44.7779598,38.2602979 44.5930499,38.3137255 44.404285,38.3137255 L29.6334508,38.3137255 C29.0811661,38.3137255 28.6334508,37.8660102 28.6334508,37.3137255 C28.6334508,37.1249607 28.6868784,36.9400507 28.7875561,36.7803755 L36.1729732,25.0670817 C36.4675343,24.599907 37.0850432,24.4599759 37.5522179,24.754537 C37.6784079,24.8341018 37.7851978,24.9408917 37.8647626,25.0670817 Z" id="Triangle" fill="#641CA4"></path>
            </g>
        </g>
    </g>
</svg>