<?xml version="1.0" encoding="UTF-8"?>
<svg width="30px" height="28px" viewBox="0 0 30 28" version="1.1" xmlns="http://www.w3.org/2000/svg" xmlns:xlink="http://www.w3.org/1999/xlink">
    <title>Icon meaning Wapple</title>
    <g id="Page-1" stroke="none" stroke-width="1" fill="none" fill-rule="evenodd">
        <g id="Group" fill="#f67900" fill-rule="nonzero">
            <g id="Group-5" transform="translate(0.000000, 0.482759)">
                <path d="M21.5640855,6.21831422 L21.8426899,6.22372519 C23.9678196,6.2073806 26.0044818,7.08114372 27.467243,8.63675518 C28.9300042,10.1923666 29.6878287,12.2904731 29.5600907,14.4309958 L29.5600907,14.4309958 L29.5600907,15.4812864 C29.0842587,20.7777518 25.0248167,27.0044745 19.0769163,27.0044745 L19.0769163,27.0044745 L19.0025675,27.0344828 C17.4990269,27.030748 16.0208069,26.6436595 14.7052095,25.9091714 C13.3940226,26.6412169 11.9212223,27.0282253 10.4227212,27.0344828 C4.47482078,27.0344828 0.48972751,20.8077601 0.0138954785,15.5112947 L0.0138954785,15.5112947 L0.0138954785,14.4610041 C-0.11403475,12.3178557 0.645774218,10.2173387 2.11181421,8.66123858 C3.5778542,7.10513847 5.61846281,6.23320577 7.746166,6.25373349 C9.32314506,6.18595501 10.8556973,6.79035946 11.9691753,7.91919426 C8.36552487,8.08351223 5.50163436,11.032263 5.41161509,14.6710623 C5.27940984,17.0374054 6.41446412,19.2936729 8.38556529,20.5826978 C8.99988687,20.9756127 9.71031164,21.1885886 10.4375909,21.197868 C9.54304144,19.7631548 9.03084583,18.119651 8.95061583,16.4265479 C8.94989961,15.9549595 8.97970252,15.4838271 9.03983433,15.0161577 C9.03279486,14.9162562 9.03279486,14.8159763 9.03983433,14.7160747 L9.03983433,14.7160747 L9.07120315,14.4863138 C9.51198288,11.6719857 11.9329704,9.58752886 14.7795582,9.61466334 C18.794391,9.61466334 20.7274586,12.6755102 20.7274586,16.1114608 C20.6982404,17.8993465 20.2171286,19.6501024 19.329702,21.197868 C19.9955818,21.0950592 20.6333521,20.8550105 21.2032907,20.4926729 C23.1743918,19.203648 24.3094461,16.9473805 24.1772409,14.5810373 C24.0561706,10.9600871 21.1920901,8.04396602 17.6048109,7.88918596 C18.7228662,6.75799829 20.2609266,6.15354984 21.8426899,6.22372519 Z M12.9505788,11.8502818 C12.0051813,11.8938579 11.1140742,12.3084413 10.4673304,13.0056015 C11.0684222,12.6224621 11.7890616,12.4781008 12.4896166,12.6004894 C13.0363904,12.6770354 13.5512603,12.9056258 13.9765917,13.2606721 C13.4816551,14.0321068 13.2325828,14.9379189 13.2628436,15.8563902 L13.2628436,15.8563902 L13.2925831,15.841386 C13.319194,17.4448342 13.867837,18.9949194 14.853907,20.2526065 C15.8373169,19.0281774 16.3868781,17.5071851 16.4152308,15.9314109 C16.4639627,14.779941 16.0450787,13.6582397 15.2553903,12.8255517 C14.6594698,12.1846112 13.8213218,11.8299529 12.9505788,11.8502818 Z M15.86505,0.792222492 C20.2516266,-1.56342923 24.0285433,1.87252137 23.5973206,4.09313573 C21.5755356,3.24745132 19.2850224,3.35750922 17.3520251,4.39321876 C16.1024616,5.06181154 15.2097846,6.25365153 14.913386,7.64911954 C14.1683488,6.88121187 13.7020378,5.8820055 13.5899781,4.81333499 C13.5088874,3.1406018 14.3962867,1.57215364 15.86505,0.792222492 Z" id="Rewards"></path>
            </g>
        </g>
    </g>
</svg>
