<?xml version="1.0" encoding="UTF-8"?>
<svg width="154px" height="31px" viewBox="0 0 154 31" version="1.1" xmlns="http://www.w3.org/2000/svg" xmlns:xlink="http://www.w3.org/1999/xlink">
    <!-- Generator: Sketch 62 (91390) - https://sketch.com -->
    <title>wrlogo</title>
    <desc>Created with Sketch.</desc>
    <g id="Page-1" stroke="none" stroke-width="1" fill="none" fill-rule="evenodd">
        <g id="wrlogo" fill="#F67900" fill-rule="nonzero">
            <path d="M16.603,9.8801 C16.603,9.9871 16.595,10.0931 16.582,10.2011 C16.568,10.3081 16.548,10.4281 16.523,10.5621 C16.388,11.1761 16.294,11.6241 16.242,11.9051 C16.187,12.1861 16.148,12.3931 16.121,12.5271 C16.095,12.6621 16.068,12.7611 16.041,12.8281 C16.013,12.8941 15.987,13.0091 15.961,13.1691 L15.76,13.1691 C15.305,12.9831 14.931,12.8611 14.637,12.8081 C14.343,12.7541 13.956,12.7281 13.475,12.7281 C12.324,12.7281 11.395,13.0421 10.687,13.6701 C9.977,14.2981 9.477,15.2941 9.183,16.6581 L6.375,29.8941 L4.61,29.8941 C3.327,29.8941 2.338,29.6271 1.643,29.0921 C0.947,28.5581 0.599,27.6891 0.599,26.4841 C0.599,26.2451 0.618,25.9841 0.66,25.7031 C0.699,25.4221 0.746,25.1221 0.8,24.8011 L2.886,15.0131 C3.126,13.8901 3.501,12.8481 4.008,11.8861 C4.516,10.9231 5.157,10.0871 5.934,9.3781 C6.708,8.6701 7.603,8.1151 8.621,7.7141 C9.637,7.3131 10.786,7.1121 12.07,7.1121 C13.674,7.1121 14.832,7.3791 15.54,7.9141 C16.248,8.4501 16.603,9.1041 16.603,9.8801" id="Fill-15"></path>
            <path d="M37.561,14.4526 C37.561,15.6016 37.379,16.6116 37.019,17.4806 C36.658,18.3506 36.038,19.0726 35.155,19.6466 C34.272,20.2216 33.089,20.6566 31.604,20.9506 C30.122,21.2446 28.256,21.3906 26.01,21.3906 L22.64,21.3906 L22.64,21.5526 C22.64,22.3006 22.8,22.9096 23.122,23.3766 C23.442,23.8446 23.85,24.2126 24.345,24.4796 C24.839,24.7476 25.393,24.9346 26.01,25.0406 C26.625,25.1486 27.226,25.2016 27.815,25.2016 C29.525,25.2016 30.896,25.0476 31.927,24.7406 C32.955,24.4326 33.872,24.0526 34.674,23.5966 L34.433,25.1216 C34.326,25.7906 34.125,26.4446 33.831,27.0866 C33.536,27.7286 33.055,28.3046 32.387,28.8116 C31.718,29.3196 30.816,29.7276 29.68,30.0346 C28.543,30.3426 27.066,30.4966 25.248,30.4966 C24.178,30.4966 23.087,30.3216 21.979,29.9746 C20.869,29.6276 19.866,29.0716 18.97,28.3096 C18.075,27.5486 17.339,26.5796 16.765,25.4016 C16.19,24.2266 15.902,22.7946 15.902,21.1096 C15.902,20.2816 16.002,19.3726 16.204,18.3836 C16.404,17.3946 16.716,16.3846 17.146,15.3556 C17.573,14.3256 18.122,13.3226 18.79,12.3456 C19.458,11.3706 20.274,10.5016 21.236,9.7396 C22.2,8.9776 23.302,8.3696 24.544,7.9136 C25.789,7.4606 27.198,7.2316 28.777,7.2316 C29.392,7.2316 30.193,7.3466 31.184,7.5736 C32.171,7.8006 33.142,8.1896 34.093,8.7366 C35.04,9.2846 35.856,10.0276 36.539,10.9626 C37.22,11.8996 37.561,13.0626 37.561,14.4526 M31.264,14.6126 C31.264,14.0516 30.976,13.5576 30.401,13.1286 C29.827,12.7016 29.044,12.4866 28.055,12.4866 C26.664,12.4866 25.594,12.8476 24.846,13.5696 C24.098,14.2916 23.496,15.4016 23.041,16.8996 L26.49,16.8996 C27.373,16.8996 28.116,16.8726 28.716,16.8186 C29.319,16.7656 29.813,16.6586 30.202,16.4976 C30.587,16.3376 30.863,16.1036 31.023,15.7956 C31.184,15.4886 31.264,15.0946 31.264,14.6126" id="Fill-17"></path>
            <path d="M72.6592,9.8801 C72.6592,10.1751 72.5652,10.5811 72.3782,11.1031 C72.1902,11.6241 71.9702,12.1601 71.7172,12.7071 C71.4602,13.2551 71.2062,13.7841 70.9532,14.2911 C70.7002,14.8001 70.5052,15.1881 70.3712,15.4561 C69.8092,16.5521 69.1482,17.7741 68.3872,19.1251 C67.6242,20.4761 66.8142,21.8321 65.9602,23.1961 C65.1032,24.5601 64.2412,25.8581 63.3732,27.0871 C62.5042,28.3171 61.6812,29.3601 60.9072,30.2151 L58.9812,30.2151 C58.0992,30.2151 57.4502,30.0751 57.0352,29.7941 C56.6202,29.5131 56.3342,29.1721 56.1732,28.7721 C55.9592,28.2371 55.7582,27.5881 55.5722,26.8261 C55.3852,26.0641 55.2112,25.2421 55.0502,24.3591 C54.8882,23.4771 54.7422,22.5541 54.6092,21.5921 C54.4752,20.6291 54.3682,19.6801 54.2882,18.7441 C53.8052,19.7611 53.2572,20.8161 52.6432,21.9131 C52.0282,23.0101 51.3932,24.0721 50.7392,25.1011 C50.0832,26.1301 49.4272,27.0941 48.7732,27.9891 C48.1182,28.8861 47.5102,29.6271 46.9482,30.2151 L45.2632,30.2151 C44.4072,30.2151 43.7652,30.1221 43.3382,29.9341 C42.9102,29.7481 42.5762,29.3601 42.3352,28.7721 C41.9352,27.8091 41.5742,26.6861 41.2522,25.4021 C40.9322,24.1191 40.6562,22.7481 40.4302,21.2901 C40.2022,19.8341 40.0232,18.3031 39.8882,16.6981 C39.7562,15.0951 39.6882,13.4761 39.6882,11.8451 C39.6882,10.5081 39.7282,9.1721 39.8082,7.8341 L43.2182,7.8341 C43.7792,7.8341 44.2612,7.9211 44.6622,8.0941 C45.0622,8.2691 45.3912,8.4971 45.6442,8.7761 C45.8972,9.0571 46.0852,9.3721 46.2062,9.7191 C46.3262,10.0671 46.3872,10.4011 46.3872,10.7221 L46.3872,12.6481 C46.3872,13.9301 46.4322,15.2481 46.5272,16.5981 C46.6192,17.9481 46.8142,19.4261 47.1092,21.0301 C48.4712,18.8641 49.6612,16.7851 50.6782,14.7931 C51.6952,12.8021 52.6302,10.8021 53.4862,8.7971 L56.1732,8.7971 C57.0562,8.7971 57.8042,9.1111 58.4192,9.7391 C59.0342,10.3681 59.3422,11.0961 59.3422,11.9261 C59.3422,12.4601 59.3692,13.0821 59.4212,13.7901 C59.4752,14.5001 59.5492,15.2551 59.6422,16.0561 C59.7362,16.8581 59.8572,17.6811 60.0032,18.5241 C60.1502,19.3661 60.3052,20.1881 60.4662,20.9901 C61.5082,19.3051 62.5852,17.3141 63.6942,15.0131 C64.8032,12.7141 65.8002,10.3211 66.6822,7.8341 L70.1702,7.8341 C71.1082,7.8341 71.7552,8.0421 72.1162,8.4551 C72.4772,8.8711 72.6592,9.3451 72.6592,9.8801" id="Fill-19"></path>
            <path d="M92.0703,14.2915 L92.0703,15.6555 C92.0703,16.1105 92.0023,16.6045 91.8703,17.1395 L91.1073,20.5895 C90.7073,22.4075 90.2453,23.9455 89.7243,25.2015 C89.2033,26.4585 88.5063,27.4755 87.6373,28.2495 C86.7703,29.0265 85.6783,29.5945 84.3693,29.9555 C83.0583,30.3165 81.4133,30.4965 79.4353,30.4965 C78.6333,30.4965 77.7653,30.4085 76.8283,30.2345 C75.8933,30.0615 75.0233,29.7415 74.2213,29.2735 C73.4193,28.8045 72.7583,28.1575 72.2363,27.3275 C71.7143,26.4985 71.4553,25.4425 71.4553,24.1585 C71.4553,22.6355 71.7953,21.3715 72.4773,20.3685 C73.1583,19.3655 74.0673,18.5635 75.2053,17.9615 C76.3403,17.3595 77.6443,16.9325 79.1153,16.6775 C80.5853,16.4245 82.1093,16.2975 83.6863,16.2975 L85.4113,16.2975 L85.6533,15.3745 C85.7063,15.2405 85.7343,15.1345 85.7343,15.0535 L85.7343,14.7325 C85.7343,13.9585 85.3793,13.4025 84.6703,13.0675 C83.9623,12.7345 82.9643,12.5665 81.6823,12.5665 C80.7183,12.5665 79.8703,12.6215 79.1343,12.7275 C78.3993,12.8355 77.7443,12.9885 77.1703,13.1895 C76.5933,13.3895 76.0733,13.6375 75.6053,13.9305 C75.1363,14.2255 74.6753,14.5465 74.2213,14.8935 L74.6223,12.5265 C74.7033,11.9925 74.9293,11.4105 75.3043,10.7825 C75.6793,10.1545 76.2283,9.5725 76.9493,9.0385 C77.6723,8.5035 78.5803,8.0615 79.6773,7.7145 C80.7723,7.3675 82.1093,7.1925 83.6863,7.1925 C84.9983,7.1925 86.1743,7.3795 87.2163,7.7545 C88.2603,8.1285 89.1423,8.6355 89.8643,9.2775 C90.5863,9.9195 91.1343,10.6695 91.5093,11.5255 C91.8833,12.3805 92.0703,13.3025 92.0703,14.2915 L92.0703,14.2915 Z M82.5243,20.6295 C81.9893,20.6295 81.4623,20.6695 80.9393,20.7485 C80.4193,20.8305 79.9503,20.9765 79.5373,21.1915 C79.1203,21.4045 78.7873,21.7185 78.5333,22.1335 C78.2783,22.5485 78.1523,23.0895 78.1523,23.7575 C78.1523,24.9345 79.0483,25.5225 80.8403,25.5225 C81.5623,25.5225 82.2503,25.3025 82.9053,24.8605 C83.5603,24.4195 83.9953,23.6505 84.2093,22.5535 L84.6103,20.6295 L82.5243,20.6295 Z" id="Fill-21"></path>
            <path d="M109.6948,9.8801 C109.6948,9.9871 109.6888,10.0931 109.6748,10.2011 C109.6618,10.3081 109.6418,10.4281 109.6138,10.5621 C109.4808,11.1761 109.3878,11.6241 109.3338,11.9051 C109.2808,12.1861 109.2398,12.3931 109.2148,12.5271 C109.1878,12.6621 109.1598,12.7611 109.1338,12.8281 C109.1078,12.8941 109.0798,13.0091 109.0538,13.1691 L108.8538,13.1691 C108.3988,12.9831 108.0248,12.8611 107.7298,12.8081 C107.4348,12.7541 107.0488,12.7281 106.5678,12.7281 C105.4178,12.7281 104.4868,13.0421 103.7778,13.6701 C103.0698,14.2981 102.5688,15.2941 102.2748,16.6581 L99.4668,29.8941 L97.7028,29.8941 C96.4188,29.8941 95.4298,29.6271 94.7358,29.0921 C94.0388,28.5581 93.6918,27.6891 93.6918,26.4841 C93.6918,26.2451 93.7128,25.9841 93.7518,25.7031 C93.7928,25.4221 93.8398,25.1221 93.8918,24.8011 L95.9778,15.0131 C96.2188,13.8901 96.5918,12.8481 97.1018,11.8861 C97.6088,10.9231 98.2508,10.0871 99.0268,9.3781 C99.8018,8.6701 100.6978,8.1151 101.7148,7.7141 C102.7288,7.3131 103.8808,7.1121 105.1628,7.1121 C106.7678,7.1121 107.9238,7.3791 108.6338,7.9141 C109.3408,8.4501 109.6948,9.1041 109.6948,9.8801" id="Fill-23"></path>
            <path d="M135.2441,3.4225 C135.2441,4.0105 135.1641,4.6655 135.0031,5.3875 L132.2371,18.3835 C132.0771,19.0795 131.8901,19.8605 131.6751,20.7295 C131.4601,21.5995 131.1601,22.4805 130.7721,23.3765 C130.3851,24.2735 129.8961,25.1545 129.3071,26.0245 C128.7211,26.8935 127.9781,27.6625 127.0831,28.3305 C126.1861,28.9985 125.1171,29.5335 123.8741,29.9345 C122.6311,30.3355 121.1791,30.5365 119.5221,30.5365 C119.1731,30.5365 118.6801,30.5025 118.0371,30.4355 C117.3961,30.3685 116.7141,30.2205 115.9921,29.9955 C115.2701,29.7675 114.5271,29.4325 113.7671,28.9915 C113.0041,28.5515 112.3151,27.9625 111.7011,27.2275 C111.0861,26.4915 110.5841,25.5885 110.1961,24.5195 C109.8081,23.4505 109.6141,22.1525 109.6141,20.6295 C109.6141,18.9715 109.8681,17.3475 110.3771,15.7555 C110.8851,14.1645 111.6261,12.7415 112.6021,11.4835 C113.5801,10.2275 114.7751,9.2185 116.1931,8.4555 C117.6101,7.6935 119.2141,7.3135 121.0061,7.3135 C121.6741,7.3135 122.3361,7.3865 122.9931,7.5335 C123.6451,7.6815 124.2491,7.9135 124.7971,8.2345 C125.3441,8.5555 125.8191,8.9635 126.2201,9.4585 C126.6211,9.9545 126.9021,10.5355 127.0621,11.2035 L129.3901,0.2135 L131.7961,0.2135 C132.9171,0.2135 133.7741,0.4675 134.3611,0.9755 C134.9511,1.4845 135.2441,2.2995 135.2441,3.4225 M125.4581,17.0195 C125.4581,16.1635 125.3441,15.4625 125.1171,14.9145 C124.8901,14.3655 124.6011,13.9375 124.2541,13.6305 C123.9071,13.3225 123.5181,13.1075 123.0911,12.9885 C122.6641,12.8685 122.2621,12.8075 121.8881,12.8075 C120.8721,12.8075 120.0231,13.0885 119.3411,13.6495 C118.6591,14.2115 118.1181,14.8865 117.7171,15.6765 C117.3161,16.4645 117.0281,17.2605 116.8551,18.0625 C116.6801,18.8645 116.5941,19.5065 116.5941,19.9875 C116.5941,21.1375 116.7141,22.0535 116.9541,22.7345 C117.1951,23.4165 117.4961,23.9315 117.8571,24.2785 C118.2181,24.6275 118.6131,24.8475 119.0411,24.9415 C119.4681,25.0355 119.8831,25.0815 120.2841,25.0815 C121.3011,25.0815 122.1421,24.7935 122.8101,24.2195 C123.4791,23.6435 124.0061,22.9495 124.3941,22.1335 C124.7831,21.3185 125.0561,20.4415 125.2181,19.5065 C125.3781,18.5705 125.4581,17.7415 125.4581,17.0195" id="Fill-25"></path>
            <path d="M153.1733,11.3143 C153.1733,11.4753 153.1673,11.6643 153.1543,11.8803 C153.1403,12.0953 153.1073,12.2983 153.0533,12.4863 L152.6523,14.4523 C152.0103,13.9183 151.1813,13.4693 150.1663,13.1083 C149.1493,12.7473 147.9323,12.5663 146.5163,12.5663 C146.1673,12.5663 145.7593,12.5873 145.2923,12.6273 C144.8243,12.6673 144.3753,12.7543 143.9473,12.8873 C143.5203,13.0213 143.1593,13.2213 142.8643,13.4883 C142.5703,13.7543 142.4243,14.1153 142.4243,14.5683 C142.4243,14.7823 142.4703,14.9693 142.5643,15.1293 C142.6583,15.2893 142.8513,15.4493 143.1463,15.6083 C143.4403,15.7683 143.8673,15.9423 144.4303,16.1293 C144.9923,16.3153 145.7383,16.5293 146.6753,16.7683 C148.1733,17.1693 149.3953,17.8313 150.3463,18.7503 C151.2943,19.6713 151.7703,20.8113 151.7703,22.1723 C151.7703,22.8393 151.6543,23.6463 151.4283,24.5933 C151.2013,25.5403 150.7263,26.4543 150.0043,27.3343 C149.2823,28.2153 148.2533,28.9633 146.9153,29.5763 C145.5783,30.1893 143.8143,30.4963 141.6223,30.4963 C140.3103,30.4963 139.1893,30.3753 138.2523,30.1353 C137.3173,29.8943 136.5543,29.5803 135.9663,29.1933 C135.3783,28.8043 134.9433,28.3703 134.6633,27.8883 C134.3823,27.4073 134.2413,26.9273 134.2413,26.4443 L134.2413,25.8043 C134.2413,25.5633 134.2673,25.3353 134.3223,25.1223 L134.7643,23.1163 C135.3783,23.6503 136.1793,24.1323 137.1693,24.5603 C138.1583,24.9883 139.3493,25.2023 140.7403,25.2023 C141.1393,25.2023 141.5893,25.1953 142.0823,25.1813 C142.5783,25.1683 143.0383,25.0953 143.4673,24.9603 C143.8953,24.8273 144.2563,24.6203 144.5503,24.3393 C144.8433,24.0583 144.9923,23.6373 144.9923,23.0763 C144.9923,22.8083 144.9183,22.5883 144.7703,22.4143 C144.6233,22.2413 144.3693,22.0673 144.0083,21.8923 C143.6473,21.7193 143.1653,21.5313 142.5643,21.3303 C141.9643,21.1303 141.2073,20.8843 140.2983,20.5893 C138.6123,20.0543 137.4363,19.3593 136.7703,18.5033 C136.1003,17.6473 135.7663,16.6183 135.7663,15.4143 C135.7663,14.6663 135.9123,13.8103 136.2073,12.8473 C136.5013,11.8863 137.0353,10.9893 137.8113,10.1613 C138.5873,9.3313 139.6443,8.6303 140.9803,8.0543 C142.3163,7.4803 144.0273,7.1923 146.1133,7.1923 C148.1993,7.1923 149.8973,7.5573 151.2083,8.2833 C152.5173,9.0103 153.1733,10.0223 153.1733,11.3143" id="Fill-27"></path>
        </g>
    </g>
</svg>