<?xml version="1.0" encoding="UTF-8"?>
<svg width="250px" height="100px" viewBox="0 0 250 100" version="1.1" xmlns="http://www.w3.org/2000/svg" xmlns:xlink="http://www.w3.org/1999/xlink">
    <!-- Generator: Sketch 62 (91390) - https://sketch.com -->
    <title>wr-logo-white</title>
    <desc>Created with Sketch.</desc>
    <g id="wr-logo-white" stroke="none" stroke-width="1" fill="none" fill-rule="evenodd">
        <rect id="Rectangle" fill="#F67900" x="0" y="0" width="250" height="100"></rect>
        <g id="wrlogo" transform="translate(21.000000, 28.000000)" fill="#FFFFFF" fill-rule="nonzero">
            <path d="M24.3491,12.3662 C24.3491,12.3662 24.7331,9.2392 28.3071,7.1382 C33.1431,4.2732 38.4231,6.6552 38.4231,6.6552 C39.1281,3.0922 32.9961,-2.4198 25.9081,1.3602 C22.8761,2.9852 22.1151,5.9052 22.2111,7.8252 C22.3631,10.4502 24.3491,12.3662 24.3491,12.3662 M21.6651,25.5322 C21.6651,23.6452 22.2111,22.2272 22.8131,21.3742 C22.5221,21.1232 21.6401,20.4622 20.3621,20.3112 C18.2131,20.0752 17.0911,20.9652 17.0911,20.9652 C17.0911,20.9652 18.7151,19.1152 21.1151,19.1152 C23.3741,19.1152 24.5561,20.3702 24.8481,20.6732 C25.9081,21.7402 26.7301,23.3352 26.7301,25.6572 C26.7301,28.0122 25.8591,30.5162 24.2021,32.6022 C22.5511,30.5162 21.6651,27.8942 21.6651,25.5322 M31.0321,43.4492 C40.6391,43.4492 47.2401,33.4512 48.0111,24.9482 C48.0621,24.3802 48.0811,23.8112 48.0811,23.2652 C48.0811,13.7322 40.8011,10.0812 35.5801,10.0812 C30.9581,10.0812 28.7241,12.7542 28.7241,12.7542 C33.4941,13.2412 39.3601,16.6012 39.3601,23.5862 C39.3601,28.4262 37.1051,31.3942 34.4731,33.0632 C32.9111,34.0382 31.4491,34.1972 31.4491,34.1972 C32.9591,31.4532 33.7201,28.7212 33.7201,26.0342 C33.7201,20.5292 30.5991,15.6042 24.1831,15.6042 C18.3761,15.6042 15.6141,19.8752 14.8831,23.8042 L14.8831,23.7962 L14.8831,23.8112 C14.8491,23.9742 14.8091,24.1432 14.8021,24.2952 C14.7131,24.9702 14.6611,25.7242 14.6611,26.5502 C14.6611,29.6112 15.9061,32.4062 16.9501,34.2112 C16.9501,34.2112 15.6291,34.2342 13.7831,33.0632 C11.1431,31.3942 8.8721,28.4302 8.8721,23.5862 C8.8721,16.6012 14.7361,13.2412 19.5021,12.7542 C19.5021,12.7542 17.2761,10.0812 12.6601,10.0812 C7.4181,10.0812 0.1411,13.7322 0.1411,23.2652 C0.1411,23.8112 0.1741,24.3802 0.2221,24.9482 C0.9901,33.4512 7.5471,43.4492 17.1541,43.4492 C19.6571,43.4492 21.9781,42.7772 24.0791,41.6432 C26.1581,42.7772 28.5291,43.4492 31.0321,43.4492" id="Fill-13"></path>
            <path d="M70.603,14.8801 C70.603,14.9871 70.595,15.0931 70.582,15.2011 C70.568,15.3081 70.548,15.4281 70.523,15.5621 C70.388,16.1761 70.294,16.6241 70.242,16.9051 C70.187,17.1861 70.148,17.3931 70.121,17.5271 C70.095,17.6621 70.068,17.7611 70.041,17.8281 C70.013,17.8941 69.987,18.0091 69.961,18.1691 L69.76,18.1691 C69.305,17.9831 68.931,17.8611 68.637,17.8081 C68.343,17.7541 67.956,17.7281 67.475,17.7281 C66.324,17.7281 65.395,18.0421 64.687,18.6701 C63.977,19.2981 63.477,20.2941 63.183,21.6581 L60.375,34.8941 L58.61,34.8941 C57.327,34.8941 56.338,34.6271 55.643,34.0921 C54.947,33.5581 54.599,32.6891 54.599,31.4841 C54.599,31.2451 54.618,30.9841 54.66,30.7031 C54.699,30.4221 54.746,30.1221 54.8,29.8011 L56.886,20.0131 C57.126,18.8901 57.501,17.8481 58.008,16.8861 C58.516,15.9231 59.157,15.0871 59.934,14.3781 C60.708,13.6701 61.603,13.1151 62.621,12.7141 C63.637,12.3131 64.786,12.1121 66.07,12.1121 C67.674,12.1121 68.832,12.3791 69.54,12.9141 C70.248,13.4501 70.603,14.1041 70.603,14.8801" id="Fill-15"></path>
            <path d="M91.561,19.4526 C91.561,20.6016 91.379,21.6116 91.019,22.4806 C90.658,23.3506 90.038,24.0726 89.155,24.6466 C88.272,25.2216 87.089,25.6566 85.604,25.9506 C84.122,26.2446 82.256,26.3906 80.01,26.3906 L76.64,26.3906 L76.64,26.5526 C76.64,27.3006 76.8,27.9096 77.122,28.3766 C77.442,28.8446 77.85,29.2126 78.345,29.4796 C78.839,29.7476 79.393,29.9346 80.01,30.0406 C80.625,30.1486 81.226,30.2016 81.815,30.2016 C83.525,30.2016 84.896,30.0476 85.927,29.7406 C86.955,29.4326 87.872,29.0526 88.674,28.5966 L88.433,30.1216 C88.326,30.7906 88.125,31.4446 87.831,32.0866 C87.536,32.7286 87.055,33.3046 86.387,33.8116 C85.718,34.3196 84.816,34.7276 83.68,35.0346 C82.543,35.3426 81.066,35.4966 79.248,35.4966 C78.178,35.4966 77.087,35.3216 75.979,34.9746 C74.869,34.6276 73.866,34.0716 72.97,33.3096 C72.075,32.5486 71.339,31.5796 70.765,30.4016 C70.19,29.2266 69.902,27.7946 69.902,26.1096 C69.902,25.2816 70.002,24.3726 70.204,23.3836 C70.404,22.3946 70.716,21.3846 71.146,20.3556 C71.573,19.3256 72.122,18.3226 72.79,17.3456 C73.458,16.3706 74.274,15.5016 75.236,14.7396 C76.2,13.9776 77.302,13.3696 78.544,12.9136 C79.789,12.4606 81.198,12.2316 82.777,12.2316 C83.392,12.2316 84.193,12.3466 85.184,12.5736 C86.171,12.8006 87.142,13.1896 88.093,13.7366 C89.04,14.2846 89.856,15.0276 90.539,15.9626 C91.22,16.8996 91.561,18.0626 91.561,19.4526 M85.264,19.6126 C85.264,19.0516 84.976,18.5576 84.401,18.1286 C83.827,17.7016 83.044,17.4866 82.055,17.4866 C80.664,17.4866 79.594,17.8476 78.846,18.5696 C78.098,19.2916 77.496,20.4016 77.041,21.8996 L80.49,21.8996 C81.373,21.8996 82.116,21.8726 82.716,21.8186 C83.319,21.7656 83.813,21.6586 84.202,21.4976 C84.587,21.3376 84.863,21.1036 85.023,20.7956 C85.184,20.4886 85.264,20.0946 85.264,19.6126" id="Fill-17"></path>
            <path d="M126.6592,14.8801 C126.6592,15.1751 126.5652,15.5811 126.3782,16.1031 C126.1902,16.6241 125.9702,17.1601 125.7172,17.7071 C125.4602,18.2551 125.2062,18.7841 124.9532,19.2911 C124.7002,19.8001 124.5052,20.1881 124.3712,20.4561 C123.8092,21.5521 123.1482,22.7741 122.3872,24.1251 C121.6242,25.4761 120.8142,26.8321 119.9602,28.1961 C119.1032,29.5601 118.2412,30.8581 117.3732,32.0871 C116.5042,33.3171 115.6812,34.3601 114.9072,35.2151 L112.9812,35.2151 C112.0992,35.2151 111.4502,35.0751 111.0352,34.7941 C110.6202,34.5131 110.3342,34.1721 110.1732,33.7721 C109.9592,33.2371 109.7582,32.5881 109.5722,31.8261 C109.3852,31.0641 109.2112,30.2421 109.0502,29.3591 C108.8882,28.4771 108.7422,27.5541 108.6092,26.5921 C108.4752,25.6291 108.3682,24.6801 108.2882,23.7441 C107.8052,24.7611 107.2572,25.8161 106.6432,26.9131 C106.0282,28.0101 105.3932,29.0721 104.7392,30.1011 C104.0832,31.1301 103.4272,32.0941 102.7732,32.9891 C102.1182,33.8861 101.5102,34.6271 100.9482,35.2151 L99.2632,35.2151 C98.4072,35.2151 97.7652,35.1221 97.3382,34.9341 C96.9102,34.7481 96.5762,34.3601 96.3352,33.7721 C95.9352,32.8091 95.5742,31.6861 95.2522,30.4021 C94.9322,29.1191 94.6562,27.7481 94.4302,26.2901 C94.2022,24.8341 94.0232,23.3031 93.8882,21.6981 C93.7562,20.0951 93.6882,18.4761 93.6882,16.8451 C93.6882,15.5081 93.7282,14.1721 93.8082,12.8341 L97.2182,12.8341 C97.7792,12.8341 98.2612,12.9211 98.6622,13.0941 C99.0622,13.2691 99.3912,13.4971 99.6442,13.7761 C99.8972,14.0571 100.0852,14.3721 100.2062,14.7191 C100.3262,15.0671 100.3872,15.4011 100.3872,15.7221 L100.3872,17.6481 C100.3872,18.9301 100.4322,20.2481 100.5272,21.5981 C100.6192,22.9481 100.8142,24.4261 101.1092,26.0301 C102.4712,23.8641 103.6612,21.7851 104.6782,19.7931 C105.6952,17.8021 106.6302,15.8021 107.4862,13.7971 L110.1732,13.7971 C111.0562,13.7971 111.8042,14.1111 112.4192,14.7391 C113.0342,15.3681 113.3422,16.0961 113.3422,16.9261 C113.3422,17.4601 113.3692,18.0821 113.4212,18.7901 C113.4752,19.5001 113.5492,20.2551 113.6422,21.0561 C113.7362,21.8581 113.8572,22.6811 114.0032,23.5241 C114.1502,24.3661 114.3052,25.1881 114.4662,25.9901 C115.5082,24.3051 116.5852,22.3141 117.6942,20.0131 C118.8032,17.7141 119.8002,15.3211 120.6822,12.8341 L124.1702,12.8341 C125.1082,12.8341 125.7552,13.0421 126.1162,13.4551 C126.4772,13.8711 126.6592,14.3451 126.6592,14.8801" id="Fill-19"></path>
            <path d="M146.0703,19.2915 L146.0703,20.6555 C146.0703,21.1105 146.0023,21.6045 145.8703,22.1395 L145.1073,25.5895 C144.7073,27.4075 144.2453,28.9455 143.7243,30.2015 C143.2033,31.4585 142.5063,32.4755 141.6373,33.2495 C140.7703,34.0265 139.6783,34.5945 138.3693,34.9555 C137.0583,35.3165 135.4133,35.4965 133.4353,35.4965 C132.6333,35.4965 131.7653,35.4085 130.8283,35.2345 C129.8933,35.0615 129.0233,34.7415 128.2213,34.2735 C127.4193,33.8045 126.7583,33.1575 126.2363,32.3275 C125.7143,31.4985 125.4553,30.4425 125.4553,29.1585 C125.4553,27.6355 125.7953,26.3715 126.4773,25.3685 C127.1583,24.3655 128.0673,23.5635 129.2053,22.9615 C130.3403,22.3595 131.6443,21.9325 133.1153,21.6775 C134.5853,21.4245 136.1093,21.2975 137.6863,21.2975 L139.4113,21.2975 L139.6533,20.3745 C139.7063,20.2405 139.7343,20.1345 139.7343,20.0535 L139.7343,19.7325 C139.7343,18.9585 139.3793,18.4025 138.6703,18.0675 C137.9623,17.7345 136.9643,17.5665 135.6823,17.5665 C134.7183,17.5665 133.8703,17.6215 133.1343,17.7275 C132.3993,17.8355 131.7443,17.9885 131.1703,18.1895 C130.5933,18.3895 130.0733,18.6375 129.6053,18.9305 C129.1363,19.2255 128.6753,19.5465 128.2213,19.8935 L128.6223,17.5265 C128.7033,16.9925 128.9293,16.4105 129.3043,15.7825 C129.6793,15.1545 130.2283,14.5725 130.9493,14.0385 C131.6723,13.5035 132.5803,13.0615 133.6773,12.7145 C134.7723,12.3675 136.1093,12.1925 137.6863,12.1925 C138.9983,12.1925 140.1743,12.3795 141.2163,12.7545 C142.2603,13.1285 143.1423,13.6355 143.8643,14.2775 C144.5863,14.9195 145.1343,15.6695 145.5093,16.5255 C145.8833,17.3805 146.0703,18.3025 146.0703,19.2915 L146.0703,19.2915 Z M136.5243,25.6295 C135.9893,25.6295 135.4623,25.6695 134.9393,25.7485 C134.4193,25.8305 133.9503,25.9765 133.5373,26.1915 C133.1203,26.4045 132.7873,26.7185 132.5333,27.1335 C132.2783,27.5485 132.1523,28.0895 132.1523,28.7575 C132.1523,29.9345 133.0483,30.5225 134.8403,30.5225 C135.5623,30.5225 136.2503,30.3025 136.9053,29.8605 C137.5603,29.4195 137.9953,28.6505 138.2093,27.5535 L138.6103,25.6295 L136.5243,25.6295 Z" id="Fill-21"></path>
            <path d="M163.6948,14.8801 C163.6948,14.9871 163.6888,15.0931 163.6748,15.2011 C163.6618,15.3081 163.6418,15.4281 163.6138,15.5621 C163.4808,16.1761 163.3878,16.6241 163.3338,16.9051 C163.2808,17.1861 163.2398,17.3931 163.2148,17.5271 C163.1878,17.6621 163.1598,17.7611 163.1338,17.8281 C163.1078,17.8941 163.0798,18.0091 163.0538,18.1691 L162.8538,18.1691 C162.3988,17.9831 162.0248,17.8611 161.7298,17.8081 C161.4348,17.7541 161.0488,17.7281 160.5678,17.7281 C159.4178,17.7281 158.4868,18.0421 157.7778,18.6701 C157.0698,19.2981 156.5688,20.2941 156.2748,21.6581 L153.4668,34.8941 L151.7028,34.8941 C150.4188,34.8941 149.4298,34.6271 148.7358,34.0921 C148.0388,33.5581 147.6918,32.6891 147.6918,31.4841 C147.6918,31.2451 147.7128,30.9841 147.7518,30.7031 C147.7928,30.4221 147.8398,30.1221 147.8918,29.8011 L149.9778,20.0131 C150.2188,18.8901 150.5918,17.8481 151.1018,16.8861 C151.6088,15.9231 152.2508,15.0871 153.0268,14.3781 C153.8018,13.6701 154.6978,13.1151 155.7148,12.7141 C156.7288,12.3131 157.8808,12.1121 159.1628,12.1121 C160.7678,12.1121 161.9238,12.3791 162.6338,12.9141 C163.3408,13.4501 163.6948,14.1041 163.6948,14.8801" id="Fill-23"></path>
            <path d="M189.2441,8.4225 C189.2441,9.0105 189.1641,9.6655 189.0031,10.3875 L186.2371,23.3835 C186.0771,24.0795 185.8901,24.8605 185.6751,25.7295 C185.4601,26.5995 185.1601,27.4805 184.7721,28.3765 C184.3851,29.2735 183.8961,30.1545 183.3071,31.0245 C182.7211,31.8935 181.9781,32.6625 181.0831,33.3305 C180.1861,33.9985 179.1171,34.5335 177.8741,34.9345 C176.6311,35.3355 175.1791,35.5365 173.5221,35.5365 C173.1731,35.5365 172.6801,35.5025 172.0371,35.4355 C171.3961,35.3685 170.7141,35.2205 169.9921,34.9955 C169.2701,34.7675 168.5271,34.4325 167.7671,33.9915 C167.0041,33.5515 166.3151,32.9625 165.7011,32.2275 C165.0861,31.4915 164.5841,30.5885 164.1961,29.5195 C163.8081,28.4505 163.6141,27.1525 163.6141,25.6295 C163.6141,23.9715 163.8681,22.3475 164.3771,20.7555 C164.8851,19.1645 165.6261,17.7415 166.6021,16.4835 C167.5801,15.2275 168.7751,14.2185 170.1931,13.4555 C171.6101,12.6935 173.2141,12.3135 175.0061,12.3135 C175.6741,12.3135 176.3361,12.3865 176.9931,12.5335 C177.6451,12.6815 178.2491,12.9135 178.7971,13.2345 C179.3441,13.5555 179.8191,13.9635 180.2201,14.4585 C180.6211,14.9545 180.9021,15.5355 181.0621,16.2035 L183.3901,5.2135 L185.7961,5.2135 C186.9171,5.2135 187.7741,5.4675 188.3611,5.9755 C188.9511,6.4845 189.2441,7.2995 189.2441,8.4225 M179.4581,22.0195 C179.4581,21.1635 179.3441,20.4625 179.1171,19.9145 C178.8901,19.3655 178.6011,18.9375 178.2541,18.6305 C177.9071,18.3225 177.5181,18.1075 177.0911,17.9885 C176.6641,17.8685 176.2621,17.8075 175.8881,17.8075 C174.8721,17.8075 174.0231,18.0885 173.3411,18.6495 C172.6591,19.2115 172.1181,19.8865 171.7171,20.6765 C171.3161,21.4645 171.0281,22.2605 170.8551,23.0625 C170.6801,23.8645 170.5941,24.5065 170.5941,24.9875 C170.5941,26.1375 170.7141,27.0535 170.9541,27.7345 C171.1951,28.4165 171.4961,28.9315 171.8571,29.2785 C172.2181,29.6275 172.6131,29.8475 173.0411,29.9415 C173.4681,30.0355 173.8831,30.0815 174.2841,30.0815 C175.3011,30.0815 176.1421,29.7935 176.8101,29.2195 C177.4791,28.6435 178.0061,27.9495 178.3941,27.1335 C178.7831,26.3185 179.0561,25.4415 179.2181,24.5065 C179.3781,23.5705 179.4581,22.7415 179.4581,22.0195" id="Fill-25"></path>
            <path d="M207.1733,16.3143 C207.1733,16.4753 207.1673,16.6643 207.1543,16.8803 C207.1403,17.0953 207.1073,17.2983 207.0533,17.4863 L206.6523,19.4523 C206.0103,18.9183 205.1813,18.4693 204.1663,18.1083 C203.1493,17.7473 201.9323,17.5663 200.5163,17.5663 C200.1673,17.5663 199.7593,17.5873 199.2923,17.6273 C198.8243,17.6673 198.3753,17.7543 197.9473,17.8873 C197.5203,18.0213 197.1593,18.2213 196.8643,18.4883 C196.5703,18.7543 196.4243,19.1153 196.4243,19.5683 C196.4243,19.7823 196.4703,19.9693 196.5643,20.1293 C196.6583,20.2893 196.8513,20.4493 197.1463,20.6083 C197.4403,20.7683 197.8673,20.9423 198.4303,21.1293 C198.9923,21.3153 199.7383,21.5293 200.6753,21.7683 C202.1733,22.1693 203.3953,22.8313 204.3463,23.7503 C205.2943,24.6713 205.7703,25.8113 205.7703,27.1723 C205.7703,27.8393 205.6543,28.6463 205.4283,29.5933 C205.2013,30.5403 204.7263,31.4543 204.0043,32.3343 C203.2823,33.2153 202.2533,33.9633 200.9153,34.5763 C199.5783,35.1893 197.8143,35.4963 195.6223,35.4963 C194.3103,35.4963 193.1893,35.3753 192.2523,35.1353 C191.3173,34.8943 190.5543,34.5803 189.9663,34.1933 C189.3783,33.8043 188.9433,33.3703 188.6633,32.8883 C188.3823,32.4073 188.2413,31.9273 188.2413,31.4443 L188.2413,30.8043 C188.2413,30.5633 188.2673,30.3353 188.3223,30.1223 L188.7643,28.1163 C189.3783,28.6503 190.1793,29.1323 191.1693,29.5603 C192.1583,29.9883 193.3493,30.2023 194.7403,30.2023 C195.1393,30.2023 195.5893,30.1953 196.0823,30.1813 C196.5783,30.1683 197.0383,30.0953 197.4673,29.9603 C197.8953,29.8273 198.2563,29.6203 198.5503,29.3393 C198.8433,29.0583 198.9923,28.6373 198.9923,28.0763 C198.9923,27.8083 198.9183,27.5883 198.7703,27.4143 C198.6233,27.2413 198.3693,27.0673 198.0083,26.8923 C197.6473,26.7193 197.1653,26.5313 196.5643,26.3303 C195.9643,26.1303 195.2073,25.8843 194.2983,25.5893 C192.6123,25.0543 191.4363,24.3593 190.7703,23.5033 C190.1003,22.6473 189.7663,21.6183 189.7663,20.4143 C189.7663,19.6663 189.9123,18.8103 190.2073,17.8473 C190.5013,16.8863 191.0353,15.9893 191.8113,15.1613 C192.5873,14.3313 193.6443,13.6303 194.9803,13.0543 C196.3163,12.4803 198.0273,12.1923 200.1133,12.1923 C202.1993,12.1923 203.8973,12.5573 205.2083,13.2833 C206.5173,14.0103 207.1733,15.0223 207.1733,16.3143" id="Fill-27"></path>
        </g>
    </g>
</svg>